<svg width="24" height="24" viewBox="0 0 24 24" fill="none" xmlns="http://www.w3.org/2000/svg">
<path d="M12.1359 2.24981C6.65243 2.17574 2.17587 6.65231 2.24993 12.1357C2.32305 17.3946 6.60508 21.6767 11.864 21.7498C17.3484 21.8248 21.824 17.3482 21.749 11.8648C21.6768 6.60496 17.3948 2.32293 12.1359 2.24981ZM18.0618 17.5896C18.0431 17.6098 18.0202 17.6257 17.9948 17.636C17.9693 17.6464 17.9418 17.651 17.9144 17.6496C17.8869 17.6482 17.8601 17.6407 17.8358 17.6278C17.8116 17.6148 17.7905 17.5967 17.774 17.5746C17.3547 17.0261 16.8413 16.5564 16.2576 16.1876C15.0641 15.4217 13.552 14.9998 11.9999 14.9998C10.4479 14.9998 8.93571 15.4217 7.74227 16.1876C7.15862 16.5563 6.64516 17.0258 6.22586 17.5742C6.20939 17.5962 6.18828 17.6143 6.16401 17.6273C6.13975 17.6402 6.11294 17.6477 6.08547 17.6491C6.05801 17.6506 6.03056 17.6459 6.00509 17.6356C5.97961 17.6252 5.95672 17.6094 5.93805 17.5892C4.56259 16.1043 3.78344 14.1642 3.74993 12.1404C3.67352 7.57902 7.41649 3.76106 11.9798 3.74981C16.543 3.73856 20.2499 7.44402 20.2499 11.9998C20.2515 14.0723 19.4699 16.0689 18.0618 17.5896Z" fill="#718096"/>
<path d="M12 6.75116C11.0756 6.75116 10.2398 7.09757 9.6459 7.7271C9.05199 8.35663 8.75527 9.2271 8.82231 10.1613C8.95824 12.0012 10.3837 13.5012 12 13.5012C13.6162 13.5012 15.0389 12.0012 15.1776 10.1618C15.247 9.23647 14.9526 8.37397 14.3489 7.73272C13.7526 7.09991 12.9182 6.75116 12 6.75116Z" fill="#718096"/>
</svg>
